# xmcd
#
# Track frame offsets:
#	150
#	27770
#	54040
#	80925
#	107475
#	124495
#	142135
#	184045
#	207940
#	228020
#	252340
#	272965
#	289785
#	312790
#
# Disc length: 4351 seconds
#
# Revision: 2
# Processed by: cddbd v1.5.1PL2 Copyright (c) Steve Scherf et al.
# Submitted via: EasyCDDAExtractor 8.0.2.1
#
DISCID=c910fd0e
DTITLE=Ozzy Osbourne - Richfield 31-01-82
DYEAR=1982
DGENRE=Hard Rock
TTITLE0=Over The Mountain
TTITLE1=Mr Crowley
TTITLE2=Crazy Train
TTITLE3=Revelation
TTITLE4=Steal Way
TTITLE5=Suicide Solution
TTITLE6=Guitar Solo
TTITLE7=Goodbye To Romance
TTITLE8=I Don't Know
TTITLE9=Believer
TTITLE10=Flying High Again
TTITLE11=Iron Man
TTITLE12=Children Of The Grave
TTITLE13=Paranoid
EXTD=
EXTT0=
EXTT1=
EXTT2=
EXTT3=
EXTT4=
EXTT5=
EXTT6=
EXTT7=
EXTT8=
EXTT9=
EXTT10=
EXTT11=
EXTT12=
EXTT13=
PLAYORDER=
